<mxfile host="app.diagrams.net" modified="2023-04-05T02:33:36.048Z" agent="Mozilla/5.0 (X11; Ubuntu; Linux x86_64; rv:109.0) Gecko/20100101 Firefox/111.0" version="21.1.2" etag="bvUVqIGlST9rbu8T3kDk" type="github">
  <diagram name="Page-1" id="bsGLRAtx3nDb-645nUYY">
    <mxGraphModel>
      <root>
        <mxCell id="0" />
        <mxCell id="1" parent="0" />
      </root>
    </mxGraphModel>
  </diagram>
</mxfile>
